Genre...........: Action | Drama | Sci-Fi
Language........: English
IMDB............:  http://www.imdb.com/title/tt1318514/
Source..........: BluRay.1080p.DTS.x264.-CHD Thanks!
Subtitles.......: Romana/English

Format : MPEG-4
Format profile : Base Media
Codec ID : isom
File size : 2.50 GiB
Duration : 1h 44mn
Overall bit rate : 3 404 Kbps

Video
ID : 1
Format : AVC
Format/Info : Advanced Video Codec
Format profile : High@L5.1
Format settings, CABAC : Yes
Format settings, ReFrames : 3 frames
Format settings, GOP : N=1
Codec ID : avc1
Codec ID/Info : Advanced Video Coding
Duration : 1h 44mn
Bit rate mode : Variable
Bit rate : 3 000 Kbps
Maximum bit rate : 24.3 Mbps
Width : 1 280 pixels
Height : 544 pixels
Display aspect ratio : 2.35:1
Frame rate mode : Constant
Frame rate : 23.976 fps
Color space : YUV
Chroma subsampling : 4:2:0
Bit depth : 8 bits
Scan type : Progressive
Bits/(Pixel*Frame) : 0.180
Stream size : 2.17 GiB (87%)
Writing library : x264

Audio
ID : 2
Format : AAC
Format/Info : Advanced Audio Codec
Format version : Version 4
Format profile : LC
Format settings, SBR : No
Codec ID : 40
Duration : 1h 44mn
Bit rate mode : Variable
Bit rate : 444 Kbps
Maximum bit rate : 538 Kbps
Channel(s) : 6 channels
Channel positions : Front: L C R, Side: L R, LFE
Sampling rate : 48.0 KHz
Stream size : 333 MiB (13%)


Plot:
During experiments to find a cure for Alzheimer's disease, a genetically-enhanced chimpanzee uses its greater intelligence to lead other apes to freedom


 
http://img684.imageshack.us/img684/3565/vlcsnap00001je.png
 
http://img845.imageshack.us/img845/778/vlcsnap00003rv.png
 
http://img684.imageshack.us/img684/5483/vlcsnap00004fb.png
 
http://img577.imageshack.us/img577/1110/vlcsnap00006bp.png
 
http://img28.imageshack.us/img28/5113/vlcsnap00007kz.png